<svg class="svg-icon" style="width: 1em; height: 1em;vertical-align: middle;fill: currentColor;overflow: hidden;" viewBox="0 0 1024 1024" version="1.1" xmlns="http://www.w3.org/2000/svg"><path d="M602.763636 512L442.181818 351.418182c-13.963636-13.963636-13.963636-34.909091 0-48.872727 13.963636-13.963636 34.909091-13.963636 48.872727 0l186.181819 186.181818c13.963636 13.963636 13.963636 34.909091 0 48.872727l-186.181819 186.181818c-13.963636 13.963636-34.909091 13.963636-48.872727 0-13.963636-13.963636-13.963636-34.909091 0-48.872727l160.581818-162.909091zM512 1024C228.072727 1024 0 795.927273 0 512S228.072727 0 512 0s512 228.072727 512 512-228.072727 512-512 512z m0-46.545455c256 0 465.454545-209.454545 465.454545-465.454545S768 46.545455 512 46.545455 46.545455 256 46.545455 512s209.454545 465.454545 465.454545 465.454545z" fill="#333333" /></svg>