<svg class="svg-icon" style="width: 1em; height: 1em;vertical-align: middle;fill: currentColor;overflow: hidden;" viewBox="0 0 1024 1024" version="1.1" xmlns="http://www.w3.org/2000/svg"><path d="M418.142355 135.239124l0 743.094262c0 11.2973-9.15859 20.466124-20.466124 20.466124-11.2973 0-20.466124-9.168824-20.466124-20.466124l0-708.025559-223.275179 223.285412c-7.992021 7.992021-20.957311 7.992021-28.949332 0s-7.992021-20.957311 0-28.949332l258.210853-258.20062c5.853311-5.853311 14.643512-7.603165 22.297842-4.441149 7.644097 3.162016 12.627598 10.621918 12.637832 18.890232L418.142355 135.239124z"  /><path d="M914.957515 634.592083l-258.210853 258.210853c-3.90903 3.90903-9.148357 5.996574-14.479783 5.996574-2.629897 0-5.28026-0.511653-7.818059-1.555425-7.644097-3.162016-12.627598-10.621918-12.637832-18.900465l-0.010233-14.346753 0-743.084029c0-11.307533 9.15859-20.466124 20.466124-20.466124 11.2973 0 20.466124 9.15859 20.466124 20.466124l0 708.015326 223.275179-223.275179c7.992021-7.992021 20.957311-7.992021 28.949332 0S922.949536 626.600061 914.957515 634.592083z"  /></svg>